<svg preserveAspectRatio="none" width="100%" height="100%" overflow="visible" style="display: block;" viewBox="0 0 20 20" fill="none" xmlns="http://www.w3.org/2000/svg">
<g id="Img">
<path id="Vector" d="M12.0214 15.6829C11.863 15.6829 11.7047 15.6246 11.5797 15.4996C11.338 15.2579 11.338 14.8579 11.5797 14.6163L16.1964 9.99961L11.5797 5.38294C11.338 5.14128 11.338 4.74128 11.5797 4.49961C11.8214 4.25794 12.2214 4.25794 12.463 4.49961L17.5214 9.55794C17.763 9.79961 17.763 10.1996 17.5214 10.4413L12.463 15.4996C12.338 15.6246 12.1797 15.6829 12.0214 15.6829Z" fill="var(--fill-0, black)"/>
<path id="Vector_2" d="M16.9391 10.625H2.91406C2.5724 10.625 2.28906 10.3417 2.28906 10C2.28906 9.65833 2.5724 9.375 2.91406 9.375H16.9391C17.2807 9.375 17.5641 9.65833 17.5641 10C17.5641 10.3417 17.2807 10.625 16.9391 10.625Z" fill="var(--fill-0, black)"/>
</g>
</svg>
